<svg xmlns="http://www.w3.org/2000/svg" id="PICK_Icon" data-name="PICK Icon" width="43" height="60"><defs><clipPath id="clip-path"><path id="Clip_2" data-name="Clip 2" d="M0 0h43v60H0z" fill="none"/></clipPath></defs><path id="Clip_2-2" data-name="Clip 2" d="M0 0h43v60H0z" fill="none"/><g id="PICK_Icon-2" data-name="PICK Icon" clip-path="url(#clip-path)"><path id="Fill_1" data-name="Fill 1" d="M21.616 60C9.825 60 .231 51.355.231 40.729A10.55 10.55 0 012.24 34.61a16.7 16.7 0 015.684-4.92V12.639a5.4 5.4 0 015.648-5.09 5.4 5.4 0 015.649 5.09v9.15a6.113 6.113 0 012.276-.437 5.822 5.822 0 014.856 2.5 6.079 6.079 0 013.07-.823A5.555 5.555 0 0134.9 26.9a6.1 6.1 0 012.448-.51A5.4 5.4 0 0143 31.486v9.244C43 51.355 33.407 60 21.616 60zM7.925 33.409C5.138 35.455 3.6 38.055 3.6 40.729c0 8.951 8.081 16.232 18.014 16.232s18.014-7.281 18.014-16.232v-9.243a2.289 2.289 0 00-4.554 0V38a1.695 1.695 0 01-3.374 0v-9.876a2.289 2.289 0 00-4.553 0V38a1.695 1.695 0 01-3.371 0V26.46a.043.043 0 000-.007.048.048 0 010-.009 2.289 2.289 0 00-4.554 0V38a1.7 1.7 0 01-3.372 0V12.639a2.175 2.175 0 00-2.277-2.051 2.175 2.175 0 00-2.273 2.051V38a1.611 1.611 0 01-1.69 1.517A1.611 1.611 0 017.925 38zM4.176 20.3a1.739 1.739 0 01-1.329-.588A11.353 11.353 0 010 12.233C0 5.488 6.089 0 13.574 0s13.575 5.488 13.575 12.233a11.31 11.31 0 01-1.84 6.145 1.737 1.737 0 01-1.459.754 1.83 1.83 0 01-.85-.207 1.533 1.533 0 01-.792-.965 1.384 1.384 0 01.185-1.113 8.492 8.492 0 001.382-4.614c0-5.069-4.577-9.193-10.2-9.193s-10.2 4.124-10.2 9.193a8.53 8.53 0 002.136 5.62 1.406 1.406 0 01.343 1.1 1.477 1.477 0 01-.641 1.029 1.8 1.8 0 01-1.037.318z" fill="#fff"/></g></svg>