<svg xmlns="http://www.w3.org/2000/svg" width="63.142" height="44.487"><g id="Measure_Icon" data-name="Measure Icon"><path id="Fill_1" data-name="Fill 1" d="M61.708 44.486h-.022a1.434 1.434 0 01-1.415-1.454V31.557A1.428 1.428 0 0161.55 30.1a1.61 1.61 0 01.164-.008h.024a1.436 1.436 0 011.4 1.465v11.515a1.439 1.439 0 01-1.43 1.414zm-60.272 0h-.02A1.438 1.438 0 010 43.032V31.557A1.429 1.429 0 011.278 30.1a1.64 1.64 0 01.165-.008h.024a1.436 1.436 0 011.4 1.465v11.475a.3.3 0 010 .041 1.44 1.44 0 01-1.431 1.413zm48.074-.029a1.439 1.439 0 01-1.436-1.426v-4.3h-33v4.3a1.436 1.436 0 01-2.4 1.053l-6.462-5.737a1.118 1.118 0 01-.1-.1 1.436 1.436 0 01.1-2.026l6.457-5.737a1.43 1.43 0 01.785-.359 1.655 1.655 0 01.19-.011 1.438 1.438 0 011.425 1.445v4.3h33v-4.3a1.443 1.443 0 011.331-1.437h.119a1.439 1.439 0 01.958.364l6.458 5.737c.038.035.072.069.1.1a1.433 1.433 0 01-.1 2.026l-6.457 5.737a1.436 1.436 0 01-.955.373zm1.434-9.718v5.088l2.87-2.533-2.87-2.555zm-38.745 0l-2.871 2.555 2.872 2.533v-5.088zm48.073-8.225H2.87a1.436 1.436 0 01-1.434-1.434V1.436A1.427 1.427 0 012.736 0H60.27a1.437 1.437 0 011.436 1.435V25.08a1.436 1.436 0 01-1.435 1.434zm-5.748-10.048h.039a1.433 1.433 0 011.4 1.464v5.715h2.871V2.871H4.306v20.775h2.87v-5.715a1.427 1.427 0 011.278-1.457 1.49 1.49 0 01.15-.008h.039a1.433 1.433 0 011.4 1.464v5.715h2.87V12.91a1.429 1.429 0 011.278-1.457c.056-.006.11-.008.165-.008h.024a1.438 1.438 0 011.4 1.465v10.736h2.87v-5.715a1.427 1.427 0 011.278-1.457 1.49 1.49 0 01.15-.008h.039a1.437 1.437 0 011.4 1.464v5.715H24.4V12.91a1.429 1.429 0 011.278-1.457c.055-.005.11-.008.165-.008h.023a1.435 1.435 0 011.4 1.465v10.736h2.87v-5.715a1.428 1.428 0 011.279-1.457 1.465 1.465 0 01.149-.008h.036A1.436 1.436 0 0133 17.93v5.715h2.87V12.91a1.428 1.428 0 011.278-1.457c.055-.005.11-.008.165-.008h.023a1.438 1.438 0 011.4 1.465v10.736h2.87v-5.715a1.428 1.428 0 011.278-1.457 1.491 1.491 0 01.15-.008h.038a1.435 1.435 0 011.4 1.464v5.715h2.87V12.91a1.428 1.428 0 011.279-1.457 1.6 1.6 0 01.164-.008h.024a1.438 1.438 0 011.4 1.465v10.736H53.1v-5.715a1.428 1.428 0 011.279-1.457 1.488 1.488 0 01.145-.008z" fill="#fff"/></g></svg>