<svg xmlns="http://www.w3.org/2000/svg" id="Wallpaper_Icon" data-name="Wallpaper Icon" width="58.416" height="59.982"><defs><clipPath id="clip-path"><path id="Clip_2" data-name="Clip 2" d="M0 0h58.416v59.982H0z" fill="none"/></clipPath></defs><path id="Clip_2-2" data-name="Clip 2" d="M0 0h58.416v59.982H0z" fill="none"/><g id="Wallpaper_Icon-2" data-name="Wallpaper Icon" clip-path="url(#clip-path)"><path id="Fill_1" data-name="Fill 1" d="M30.571 59.982H1.919A1.831 1.831 0 010 58.258V1.724A1.831 1.831 0 011.919 0H56.5a1.831 1.831 0 011.919 1.724v39.489a4.009 4.009 0 01-4.2 3.775H30.627a.026.026 0 00-.028.025v14.944a.027.027 0 01-.028.025zM16.718 2.5a.027.027 0 00-.028.025v54.932a.027.027 0 00.028.025h11.1V45.013a.026.026 0 00-.028-.025h-1.343a4 4 0 01-4.192-3.768v-11.2a.026.026 0 01.028-.024h5.507a.027.027 0 00.029-.026V2.524a.027.027 0 00-.029-.025zM2.81 2.5a.028.028 0 00-.028.025v54.932a.028.028 0 00.028.025h11.1V2.524a.028.028 0 00-.029-.025zm22.254 29.992a.026.026 0 00-.028.024v8.7a1.353 1.353 0 001.417 1.274H50.27a.029.029 0 00.024-.011.023.023 0 000-.021 3.35 3.35 0 01-.227-1.216v-8.726a.026.026 0 00-.028-.024zM44.537 2.5a.026.026 0 00-.028.025v27.44a.026.026 0 00.028.026h8.289a.026.026 0 01.028.024v11.133a1.361 1.361 0 001.261 1.333c.043 0 .086.005.128.005a1.464 1.464 0 00.983-.366 1.179 1.179 0 00.407-.882V2.524a.028.028 0 00-.028-.025zm-13.91 0a.027.027 0 00-.028.025v27.44a.027.027 0 00.028.026H41.7a.027.027 0 00.028-.026V2.524A.027.027 0 0041.7 2.5z" fill="#fff"/></g></svg>