<svg width="28" height="28" fill="none" xmlns="http://www.w3.org/2000/svg"><g clip-path="url(#clip0_55_36389)"><path d="M14.01 2.528c3.742 0 4.173.02 5.662.078 1.372.059 2.117.294 2.607.49.646.255 1.116.549 1.606 1.038.49.49.784.96 1.039 1.607.196.49.411 1.235.49 2.606.058 1.47.078 1.92.078 5.663 0 3.742-.02 4.173-.078 5.662-.06 1.372-.294 2.117-.49 2.607-.255.646-.549 1.116-1.039 1.606-.49.49-.96.784-1.607 1.039-.49.196-1.234.411-2.605.49-1.47.058-1.92.078-5.663.078-3.743 0-4.174-.02-5.663-.078-1.371-.06-2.116-.294-2.606-.49-.647-.255-1.117-.549-1.607-1.039-.49-.49-.783-.96-1.038-1.607-.196-.49-.412-1.234-.49-2.605-.059-1.47-.078-1.92-.078-5.663 0-3.743.02-4.174.078-5.663.059-1.371.294-2.116.49-2.606.255-.647.549-1.117 1.038-1.607.49-.49.96-.803 1.607-1.038.49-.196 1.235-.412 2.606-.49 1.47-.078 1.92-.078 5.663-.078zm0-2.528c-3.801 0-4.291.02-5.78.078-1.49.079-2.51.314-3.39.667A6.776 6.776 0 002.35 2.35 6.776 6.776 0 00.745 4.84c-.353.88-.588 1.9-.667 3.39C.02 9.719 0 10.209 0 14.01s.02 4.271.078 5.78c.06 1.49.314 2.508.647 3.39.372.92.843 1.704 1.626 2.469a6.775 6.775 0 002.489 1.606c.881.353 1.9.588 3.41.647 1.488.059 1.978.078 5.78.078 3.8 0 4.27-.02 5.78-.078 1.489-.059 2.508-.314 3.409-.647.921-.352 1.705-.842 2.488-1.606a6.775 6.775 0 001.607-2.489c.353-.881.588-1.9.647-3.39.059-1.489.078-1.979.078-5.78s-.02-4.271-.078-5.78c-.059-1.49-.314-2.508-.647-3.39a7.89 7.89 0 00-1.646-2.469A6.775 6.775 0 0023.18.745c-.882-.353-1.9-.588-3.41-.647C18.281.02 17.811 0 14.01 0z"/><path d="M14.01 6.819a7.183 7.183 0 00-7.192 7.19 7.183 7.183 0 007.191 7.192A7.183 7.183 0 0021.2 14.01c0-3.978-3.233-7.191-7.19-7.191zm0 11.854a4.662 4.662 0 01-4.664-4.663 4.662 4.662 0 014.663-4.664 4.662 4.662 0 014.664 4.664 4.675 4.675 0 01-4.664 4.663zm9.15-12.148a1.685 1.685 0 11-3.37 0 1.685 1.685 0 013.37 0z"/></g><defs><clipPath id="clip0_55_36389"><path fill="#fff" d="M0 0h28v28H0z"/></clipPath></defs></svg>