<svg width="97" height="16" fill="none" xmlns="http://www.w3.org/2000/svg"><path d="M11.168 7.764c0-.886-.1-1.657-.303-2.315-.202-.657-.475-1.22-.82-1.69a4.616 4.616 0 00-1.211-1.152 6.098 6.098 0 00-1.465-.712 7.736 7.736 0 00-1.592-.362 13.224 13.224 0 00-1.582-.097h-1.22v12.607h1.22c.515 0 1.042-.033 1.582-.098a8.171 8.171 0 001.592-.351 6.63 6.63 0 001.465-.713c.462-.3.866-.68 1.21-1.143a5.61 5.61 0 00.821-1.68c.202-.65.303-1.415.303-2.294zm2.266-.04a7.415 7.415 0 01-.547 2.852 6.405 6.405 0 01-1.602 2.305c-.71.657-1.592 1.175-2.646 1.553C7.59 14.81 6.376 15 4.996 15H.836V.479h4.16c1.38 0 2.594.188 3.643.566 1.054.378 1.937.895 2.646 1.553a6.295 6.295 0 011.602 2.304c.364.88.547 1.82.547 2.823zm5.79-2.109c.665 0 1.225.124 1.68.371.462.241.837.57 1.123.987.293.416.502.898.625 1.445.13.54.196 1.113.196 1.719v.459h-6.016c0 .364.059.758.176 1.181.117.424.306.814.566 1.172a3.35 3.35 0 001.026.899c.423.234.94.351 1.552.351h2.032V15h-2.061c-.911 0-1.7-.104-2.363-.313-.658-.208-1.201-.51-1.631-.908a3.602 3.602 0 01-.938-1.455c-.201-.573-.302-1.227-.302-1.963 0-.612.094-1.204.283-1.777a4.698 4.698 0 01.84-1.514 4.086 4.086 0 011.357-1.054c.54-.267 1.159-.4 1.856-.4zm-.097.889c-.404 0-.749.091-1.035.273a2.257 2.257 0 00-.713.733c-.182.3-.32.65-.41 1.054-.085.398-.13.811-.137 1.24h4.13v-.42a8.146 8.146 0 00-.107-1.083 2.977 2.977 0 00-.283-.918 1.65 1.65 0 00-.556-.635c-.228-.163-.524-.244-.889-.244zM24.781.479h1.983V15H24.78V.479zm10.196 13.76c-.424.182-.811.335-1.162.458-.352.118-.68.212-.987.284-.3.071-.583.12-.85.146-.266.032-.52.049-.761.049-.612 0-1.08-.156-1.406-.469-.32-.319-.479-.833-.479-1.543V5.801h1.982v7.06c0 .15.014.3.04.45.032.143.084.273.156.39a.965.965 0 00.312.293c.13.072.3.108.508.108.332 0 .716-.04 1.152-.118.443-.084.941-.254 1.495-.507V5.8h1.972V15h-1.972v-.762zm8.369-4.678L46.734 15h-2.109l-2.353-3.78L39.889 15h-1.045l2.91-4.61-2.852-4.59h2.11l1.816 2.92 1.846-2.92h1.035l-2.363 3.76zm8.203-3.946c.664 0 1.224.124 1.68.371.462.241.836.57 1.123.987.293.416.5.898.625 1.445.13.54.195 1.113.195 1.719v.459h-6.016c0 .364.059.758.176 1.181.117.424.306.814.566 1.172.267.358.61.658 1.026.899.423.234.94.351 1.553.351h2.03V15h-2.06c-.911 0-1.699-.104-2.363-.313-.658-.208-1.201-.51-1.63-.908a3.602 3.602 0 01-.938-1.455c-.202-.573-.303-1.227-.303-1.963 0-.612.094-1.204.283-1.777a4.7 4.7 0 01.84-1.514 4.085 4.085 0 011.357-1.054c.54-.267 1.16-.4 1.856-.4zm-.098.889c-.404 0-.748.091-1.035.273a2.258 2.258 0 00-.713.733c-.182.3-.319.65-.41 1.054-.085.398-.13.811-.137 1.24h4.131v-.42a8.146 8.146 0 00-.107-1.083 2.977 2.977 0 00-.283-.918 1.65 1.65 0 00-.557-.635c-.228-.163-.524-.244-.889-.244zM55.055.479h2.138l3.633 11.24 2.276-5.44-1.885-5.8h2.148l3.623 11.181L71.227.48h1.103l-4.844 12.724.606 1.797h-2.178L63.58 7.803l-2.265 5.42L61.89 15h-2.159L55.055.479zm20.517 5.986c-.312 0-.586.01-.82.03a7.469 7.469 0 00-.625.077 5.3 5.3 0 00-.527.117c-.163.04-.326.082-.489.127l-.234-.634a8.319 8.319 0 011.709-.43 11.319 11.319 0 011.7-.137c.683 0 1.243.036 1.679.108.443.071.788.192 1.035.361.247.163.417.384.508.664.098.273.146.619.146 1.035V15h-3.203c-.872 0-1.618-.091-2.236-.273-.612-.183-1.113-.427-1.504-.733a2.935 2.935 0 01-.86-1.064 3.05 3.05 0 01-.273-1.27c0-.547.085-1.028.254-1.445.176-.417.427-.765.752-1.045a3.183 3.183 0 011.191-.645 5.258 5.258 0 011.602-.224c.326 0 .693.055 1.104.166.416.11.813.276 1.19.498v-1.22c0-.15-.015-.3-.048-.45a.73.73 0 00-.254-.41c-.137-.124-.348-.225-.635-.303-.28-.078-.667-.117-1.162-.117zm2.1 7.734V9.678a3.785 3.785 0 00-.977-.42 4.316 4.316 0 00-1.123-.137c-.325 0-.615.059-.869.176a1.726 1.726 0 00-.625.498c-.17.215-.3.472-.39.771-.085.3-.127.632-.127.996 0 .105.003.241.01.41.012.17.045.352.097.548a3.1 3.1 0 00.254.595c.117.195.28.375.488.537.209.163.472.297.791.4.32.098.71.147 1.172.147h1.299zM82.222.48h1.983V15h-1.982V.479zm4.61 0h1.983V15h-1.983V.479zm7.031 5.136c.274 0 .511.013.713.04.202.019.39.051.567.097.182.046.36.098.537.156l.586.196-.02.859a9.58 9.58 0 00-.977-.293 4.998 4.998 0 00-1.2-.127 1.92 1.92 0 00-.352.039 1.395 1.395 0 00-.39.137.885.885 0 00-.313.244.584.584 0 00-.127.38c0 .17.075.375.224.616.157.24.4.54.733.898l1.045 1.182c.221.254.44.501.654.742.221.235.417.466.586.694.17.228.306.455.41.683.11.222.166.443.166.664 0 .43-.098.795-.293 1.094-.195.3-.45.547-.762.742a3.421 3.421 0 01-1.064.41c-.39.085-.785.127-1.182.127a5.34 5.34 0 01-1.474-.185 5.01 5.01 0 01-1.202-.508l.079-.879c.3.156.625.303.976.44.352.13.713.195 1.084.195.612 0 1.071-.108 1.377-.322.306-.215.46-.528.46-.938 0-.286-.121-.586-.362-.898a12.967 12.967 0 00-.88-1.035l-1.034-1.163a46.505 46.505 0 00-.703-.869 7.412 7.412 0 01-.46-.625 2.588 2.588 0 01-.263-.517 1.789 1.789 0 01-.078-.547c0-.332.075-.609.224-.83.157-.222.365-.397.625-.528.267-.136.58-.23.938-.283a7.142 7.142 0 011.152-.088z" fill="#000"/></svg>