<svg width="33" height="28" fill="none" xmlns="http://www.w3.org/2000/svg"><g clip-path="url(#clip0_55_36394)"><path d="M30.813.227L1.235 11.456c-1.608.475-1.567 2.068-.372 2.46l7.4 2.317 2.845 8.726c.35.951.618 1.324 1.216 1.324.618 0 .845-.228 1.505-.786.742-.703 1.896-1.82 3.71-3.598l7.709 5.707c1.422.786 2.432.372 2.803-1.323l4.823-23.988c.515-2.068-.7-2.689-2.061-2.068zM9.438 15.695l16.84-10.609c.825-.558 1.093.062.722.497L13.025 18.197l-.722 6.307-2.865-8.81z"/></g><defs><clipPath id="clip0_55_36394"><path fill="#fff" d="M0 0h33v28H0z"/></clipPath></defs></svg>