<svg width="28" height="28" fill="none" xmlns="http://www.w3.org/2000/svg"><g clip-path="url(#clip0_55_36411)"><path clip-rule="evenodd" d="M14 0C6.266 0 0 6.266 0 14c0 2.64.725 5.113 2.008 7.232L.242 28l6.99-1.73A13.885 13.885 0 0014 28.02c7.734 0 14-6.266 14-14C28 6.266 21.734 0 14 0zm0 25.657c-2.361 0-4.574-.706-6.414-1.933l-4.035.985 1.004-3.886a11.57 11.57 0 01-2.212-6.842C2.343 7.548 7.567 2.324 14 2.324s11.657 5.224 11.657 11.657c0 6.452-5.224 11.676-11.657 11.676zm6.563-8.478c-.353-.186-2.082-1.115-2.398-1.245-.316-.13-.558-.205-.818.148-.26.354-.967 1.134-1.19 1.358-.223.223-.428.26-.781.055-.353-.186-1.488-.613-2.808-1.878-1.022-.985-1.691-2.175-1.896-2.547-.205-.372.019-.539.186-.725.167-.186.372-.409.558-.613.186-.205.316-.372.371-.577.075-.26.075-.446 0-.632-.074-.186-.687-1.99-1.004-2.696-.241-.539-.557-.595-.78-.632-.205-.037-.447-.037-.688-.056-.242 0-.632.075-.967.41-.335.353-1.302 1.17-1.357 2.937-.075 1.766 1.152 3.514 1.32 3.756.167.241 2.324 4.053 5.912 5.633 1.506.65 2.38.967 2.938 1.097.78.186 1.896-.186 2.287-.372.632-.297 1.301-.762 1.505-1.283.335-.818.354-1.543.28-1.692-.075-.148-.317-.241-.67-.446z"/></g><defs><clipPath id="clip0_55_36411"><path fill="#fff" d="M0 0h28v28H0z"/></clipPath></defs></svg>